<svg version="1.1" id="Layer_1" xmlns="http://www.w3.org/2000/svg" xmlns:xlink="http://www.w3.org/1999/xlink" x="0px" y="0px"
	 width="100%" viewBox="0 0 600 600" enable-background="new 0 0 600 600" xml:space="preserve">
<path fill="#000000" opacity="0.000000" stroke="none" 
	d="
M601.000000,222.000000 
	C601.000000,348.666656 601.000000,474.833344 601.000000,601.000000 
	C401.000000,601.000000 201.000000,601.000000 1.000000,601.000000 
	C1.000000,401.000000 1.000000,201.000000 1.000000,1.000000 
	C201.000000,1.000000 401.000000,1.000000 601.000000,1.000000 
	C601.000000,74.500000 601.000000,148.000000 601.000000,222.000000 
M572.997375,356.364227 
	C573.009399,355.531097 572.934021,354.685974 573.046570,353.866669 
	C574.682861,341.958160 577.466187,330.078125 577.732361,318.141296 
	C578.114563,300.997223 577.680420,283.694672 575.704895,266.679230 
	C573.871704,250.889923 570.236572,235.209702 566.172974,219.803741 
	C560.575378,198.582275 550.945618,178.907104 539.942261,159.984818 
	C528.782654,140.793869 515.221008,123.326591 499.769501,107.414932 
	C493.248016,100.699203 485.973633,94.706596 478.953156,88.484993 
	C464.966339,76.089798 449.442200,65.887390 433.039398,57.042259 
	C414.621887,47.110691 395.391785,39.134434 375.169769,33.560528 
	C356.812775,28.500708 338.112671,24.888187 319.178009,24.267754 
	C301.385376,23.684744 283.405029,24.314491 265.720703,26.305899 
	C250.257538,28.047180 234.903244,31.729717 219.839569,35.806267 
	C199.335602,41.355076 180.146164,50.315788 161.740555,60.980774 
	C142.229782,72.286133 124.400658,85.803871 108.223602,101.429604 
	C101.012199,108.395233 94.580444,116.173325 87.863350,123.644272 
	C74.153610,138.892624 63.520992,156.229996 54.011757,174.272278 
	C43.026775,195.114594 35.137737,217.183334 30.172070,240.159363 
	C27.333092,253.295258 24.824999,266.710297 24.283703,280.085297 
	C23.516827,299.034241 23.154230,318.060181 25.839615,337.045654 
	C28.221409,353.884796 31.673063,370.383026 36.900742,386.534821 
	C43.443840,406.750824 51.875011,426.123993 63.039135,444.237640 
	C74.086830,462.162354 86.533463,479.055145 101.513962,493.909058 
	C108.996964,501.328827 116.931000,508.305847 124.834213,515.287048 
	C139.202179,527.978882 155.413483,537.980408 172.241714,546.996826 
	C194.745117,559.054016 218.598724,567.690186 243.577789,572.636536 
	C257.755798,575.444031 272.285767,577.044189 286.728851,577.778503 
	C300.427551,578.474976 314.288452,578.068726 327.951385,576.792114 
	C341.457733,575.530212 354.988251,573.338135 368.182770,570.190247 
	C391.349762,564.663208 413.370117,555.988770 434.331818,544.416748 
	C455.657471,532.643799 475.061432,518.406067 492.673340,501.725922 
	C509.344116,485.937103 523.614746,468.122284 535.880737,448.676056 
	C546.544861,431.769379 555.572693,414.060883 561.916077,395.122528 
	C566.090576,382.659271 569.314636,369.877686 572.997375,356.364227 
z"/>
<path fill="#FFFFFF" opacity="1.000000" stroke="none" 
	d="
M572.980835,356.801453 
	C569.314636,369.877686 566.090576,382.659271 561.916077,395.122528 
	C555.572693,414.060883 546.544861,431.769379 535.880737,448.676056 
	C523.614746,468.122284 509.344116,485.937103 492.673340,501.725922 
	C475.061432,518.406067 455.657471,532.643799 434.331818,544.416748 
	C413.370117,555.988770 391.349762,564.663208 368.182770,570.190247 
	C354.988251,573.338135 341.457733,575.530212 327.951385,576.792114 
	C314.288452,578.068726 300.427551,578.474976 286.728851,577.778503 
	C272.285767,577.044189 257.755798,575.444031 243.577789,572.636536 
	C218.598724,567.690186 194.745117,559.054016 172.241714,546.996826 
	C155.413483,537.980408 139.202179,527.978882 124.834213,515.287048 
	C116.931000,508.305847 108.996964,501.328827 101.513962,493.909058 
	C86.533463,479.055145 74.086830,462.162354 63.039135,444.237640 
	C51.875011,426.123993 43.443840,406.750824 36.900742,386.534821 
	C31.673063,370.383026 28.221409,353.884796 25.839615,337.045654 
	C23.154230,318.060181 23.516827,299.034241 24.283703,280.085297 
	C24.824999,266.710297 27.333092,253.295258 30.172070,240.159363 
	C35.137737,217.183334 43.026775,195.114594 54.011757,174.272278 
	C63.520992,156.229996 74.153610,138.892624 87.863350,123.644272 
	C94.580444,116.173325 101.012199,108.395233 108.223602,101.429604 
	C124.400658,85.803871 142.229782,72.286133 161.740555,60.980774 
	C180.146164,50.315788 199.335602,41.355076 219.839569,35.806267 
	C234.903244,31.729717 250.257538,28.047180 265.720703,26.305899 
	C283.405029,24.314491 301.385376,23.684744 319.178009,24.267754 
	C338.112671,24.888187 356.812775,28.500708 375.169769,33.560528 
	C395.391785,39.134434 414.621887,47.110691 433.039398,57.042259 
	C449.442200,65.887390 464.966339,76.089798 478.953156,88.484993 
	C485.973633,94.706596 493.248016,100.699203 499.769501,107.414932 
	C515.221008,123.326591 528.782654,140.793869 539.942261,159.984818 
	C550.945618,178.907104 560.575378,198.582275 566.172974,219.803741 
	C570.236572,235.209702 573.871704,250.889923 575.704895,266.679230 
	C577.680420,283.694672 578.114563,300.997223 577.732361,318.141296 
	C577.466187,330.078125 574.682861,341.958160 573.046570,353.866669 
	C572.934021,354.685974 573.009399,355.531097 572.980835,356.801453 
M204.725372,531.967407 
	C214.272659,535.227051 223.720459,538.824097 233.388306,541.674927 
	C252.467850,547.301086 272.040863,550.576599 291.912689,550.840576 
	C305.068207,551.015320 318.361511,550.533569 331.378876,548.766907 
	C345.546448,546.844055 359.607544,543.634521 373.458069,540.005310 
	C390.584076,535.517944 406.607758,528.136047 422.111145,519.516724 
	C437.605713,510.902283 452.141235,500.930664 465.202393,489.056793 
	C474.779175,480.350525 483.520569,470.688904 492.280273,461.128723 
	C505.696716,446.486298 516.163147,429.694427 524.789062,411.967712 
	C531.141235,398.913452 536.295105,385.164032 540.756714,371.328949 
	C546.894653,352.295441 549.926514,332.498108 550.864868,312.547424 
	C551.715027,294.469604 550.309021,276.480255 547.169922,258.543884 
	C543.683167,238.620956 538.129272,219.389893 529.881531,201.041504 
	C520.867249,180.987610 509.750366,162.154007 495.700958,145.016571 
	C480.896973,126.958679 464.381592,110.739616 445.427307,97.285446 
	C423.446899,81.683228 399.438477,69.844154 373.528107,61.943768 
	C352.119080,55.415894 330.267426,51.777023 307.953705,51.095646 
	C299.553986,50.839149 291.089661,51.321007 282.711273,52.085487 
	C271.694458,53.090710 260.533722,53.821327 249.789597,56.243416 
	C226.737869,61.440048 204.603729,69.277397 183.640076,80.579475 
	C162.306107,92.081192 143.168472,106.369965 125.692566,122.962036 
	C119.876450,128.484009 114.943108,134.932800 109.572968,140.928116 
	C97.306755,154.622299 87.538612,170.024918 79.028946,186.223694 
	C70.877022,201.741501 64.563103,218.001984 59.916000,234.948425 
	C54.868114,253.356415 51.530323,272.056152 51.176285,291.086273 
	C50.928551,304.402618 51.663513,317.826996 53.193359,331.060486 
	C54.616337,343.369507 57.025146,355.657990 60.145443,367.657654 
	C66.407043,391.737946 76.448318,414.348541 90.110069,435.137848 
	C102.511398,454.009155 116.233673,471.909912 133.885193,486.360016 
	C141.946869,492.959595 149.874237,499.749664 158.233673,505.953217 
	C172.374344,516.447021 187.937241,524.519592 204.725372,531.967407 
z"/>
<path fill="#000000" opacity="0.000000" stroke="none" 
	d="
M204.384857,531.763489 
	C187.937241,524.519592 172.374344,516.447021 158.233673,505.953217 
	C149.874237,499.749664 141.946869,492.959595 133.885193,486.360016 
	C116.233673,471.909912 102.511398,454.009155 90.110069,435.137848 
	C76.448318,414.348541 66.407043,391.737946 60.145443,367.657654 
	C57.025146,355.657990 54.616337,343.369507 53.193359,331.060486 
	C51.663513,317.826996 50.928551,304.402618 51.176285,291.086273 
	C51.530323,272.056152 54.868114,253.356415 59.916000,234.948425 
	C64.563103,218.001984 70.877022,201.741501 79.028946,186.223694 
	C87.538612,170.024918 97.306755,154.622299 109.572968,140.928116 
	C114.943108,134.932800 119.876450,128.484009 125.692566,122.962036 
	C143.168472,106.369965 162.306107,92.081192 183.640076,80.579475 
	C204.603729,69.277397 226.737869,61.440048 249.789597,56.243416 
	C260.533722,53.821327 271.694458,53.090710 282.711273,52.085487 
	C291.089661,51.321007 299.553986,50.839149 307.953705,51.095646 
	C330.267426,51.777023 352.119080,55.415894 373.528107,61.943768 
	C399.438477,69.844154 423.446899,81.683228 445.427307,97.285446 
	C464.381592,110.739616 480.896973,126.958679 495.700958,145.016571 
	C509.750366,162.154007 520.867249,180.987610 529.881531,201.041504 
	C538.129272,219.389893 543.683167,238.620956 547.169922,258.543884 
	C550.309021,276.480255 551.715027,294.469604 550.864868,312.547424 
	C549.926514,332.498108 546.894653,352.295441 540.756714,371.328949 
	C536.295105,385.164032 531.141235,398.913452 524.789062,411.967712 
	C516.163147,429.694427 505.696716,446.486298 492.280273,461.128723 
	C483.520569,470.688904 474.779175,480.350525 465.202393,489.056793 
	C452.141235,500.930664 437.605713,510.902283 422.111145,519.516724 
	C406.607758,528.136047 390.584076,535.517944 373.458069,540.005310 
	C359.607544,543.634521 345.546448,546.844055 331.378876,548.766907 
	C318.361511,550.533569 305.068207,551.015320 291.912689,550.840576 
	C272.040863,550.576599 252.467850,547.301086 233.388306,541.674927 
	C223.720459,538.824097 214.272659,535.227051 204.384857,531.763489 
M429.003418,302.629639 
	C429.335114,301.381744 429.922760,300.141296 429.959259,298.884827 
	C430.360687,285.067688 430.008179,271.309174 426.403809,257.832733 
	C419.645630,232.564789 407.122559,211.025589 385.753204,195.281525 
	C370.608185,184.123322 353.429657,177.802750 334.851562,176.211121 
	C324.876556,175.356537 314.637115,175.988892 304.657288,177.153152 
	C288.430176,179.046188 274.077209,185.789688 261.828217,196.706985 
	C256.823303,201.167770 252.007675,205.840988 247.419388,210.124908 
	C243.526886,186.956619 224.242920,174.253540 208.000000,177.450485 
	C208.000000,179.150009 208.000000,180.938263 208.000000,182.726517 
	C208.000000,263.373993 208.075241,344.021576 207.930573,424.668793 
	C207.904572,439.165009 212.473297,451.255219 223.910767,460.377686 
	C231.441864,466.384430 239.861557,469.878204 250.102295,468.767334 
	C250.102295,433.687103 250.102295,398.938354 250.102295,364.181366 
	C250.929276,364.106598 251.517395,363.874512 251.893005,364.063904 
	C252.383118,364.310974 252.744080,364.862823 253.093307,365.333496 
	C262.807617,378.426666 276.036560,386.513641 291.205231,391.594330 
	C303.779388,395.806000 316.840759,396.363129 330.010437,396.049286 
	C343.982819,395.716309 357.280792,392.540375 369.788513,386.570923 
	C393.814972,375.104095 411.000732,356.752716 421.057953,332.229858 
	C424.796051,323.115112 426.414948,313.131287 429.003418,302.629639 
z"/>
<path fill="#FFFFFF" opacity="1.000000" stroke="none" 
	d="
M429.001831,303.086700 
	C426.414948,313.131287 424.796051,323.115112 421.057953,332.229858 
	C411.000732,356.752716 393.814972,375.104095 369.788513,386.570923 
	C357.280792,392.540375 343.982819,395.716309 330.010437,396.049286 
	C316.840759,396.363129 303.779388,395.806000 291.205231,391.594330 
	C276.036560,386.513641 262.807617,378.426666 253.093307,365.333496 
	C252.744080,364.862823 252.383118,364.310974 251.893005,364.063904 
	C251.517395,363.874512 250.929276,364.106598 250.102295,364.181366 
	C250.102295,398.938354 250.102295,433.687103 250.102295,468.767334 
	C239.861557,469.878204 231.441864,466.384430 223.910767,460.377686 
	C212.473297,451.255219 207.904572,439.165009 207.930573,424.668793 
	C208.075241,344.021576 208.000000,263.373993 208.000000,182.726517 
	C208.000000,180.938263 208.000000,179.150009 208.000000,177.450485 
	C224.242920,174.253540 243.526886,186.956619 247.419388,210.124908 
	C252.007675,205.840988 256.823303,201.167770 261.828217,196.706985 
	C274.077209,185.789688 288.430176,179.046188 304.657288,177.153152 
	C314.637115,175.988892 324.876556,175.356537 334.851562,176.211121 
	C353.429657,177.802750 370.608185,184.123322 385.753204,195.281525 
	C407.122559,211.025589 419.645630,232.564789 426.403809,257.832733 
	C430.008179,271.309174 430.360687,285.067688 429.959259,298.884827 
	C429.922760,300.141296 429.335114,301.381744 429.001831,303.086700 
M272.532776,230.980469 
	C270.622406,233.217865 268.741547,235.481232 266.796722,237.688278 
	C257.092957,248.700378 251.598312,261.899353 250.231400,276.121765 
	C247.882217,300.564362 254.357559,322.165131 272.440308,340.236084 
	C293.957703,361.739532 331.343628,365.200317 356.313690,348.966461 
	C381.490875,332.597961 395.239349,301.034119 388.840057,272.891266 
	C384.524200,253.910889 375.455231,237.505951 359.299622,225.859802 
	C341.336060,212.910355 321.579590,209.017883 300.104736,215.031769 
	C289.814545,217.913483 281.119080,223.667282 272.532776,230.980469 
z"/>
<path fill="#000000" opacity="0.000000" stroke="none" 
	d="
M272.781677,230.716064 
	C281.119080,223.667282 289.814545,217.913483 300.104736,215.031769 
	C321.579590,209.017883 341.336060,212.910355 359.299622,225.859802 
	C375.455231,237.505951 384.524200,253.910889 388.840057,272.891266 
	C395.239349,301.034119 381.490875,332.597961 356.313690,348.966461 
	C331.343628,365.200317 293.957703,361.739532 272.440308,340.236084 
	C254.357559,322.165131 247.882217,300.564362 250.231400,276.121765 
	C251.598312,261.899353 257.092957,248.700378 266.796722,237.688278 
	C268.741547,235.481232 270.622406,233.217865 272.781677,230.716064 
z"/>
</svg>